<svg width="30" height="23" viewBox="0 0 30 23" fill="none" xmlns="http://www.w3.org/2000/svg">
<path d="M29.7794 19.9716V2.93679C29.7794 1.3658 28.6381 0.0976562 27.2242 0.0976562H3.35844C1.94455 0.0976562 0.803223 1.3658 0.803223 2.93679V19.9716C0.803223 21.5426 1.94455 22.8107 3.35844 22.8107H27.2242C28.6381 22.8107 29.7794 21.5426 29.7794 19.9716ZM27.5479 2.72859C28.11 3.3532 27.8034 3.99673 27.4967 4.3185L20.5806 11.3596L27.2242 19.0441C27.4286 19.3091 27.5649 19.7255 27.3264 20.0094C27.1049 20.3123 26.5939 20.2934 26.3725 20.1041L18.9282 13.0441L15.2828 16.735L11.6544 13.0441L4.21018 20.1041C3.98873 20.2934 3.47769 20.3123 3.25623 20.0094C3.01775 19.7255 3.15402 19.3091 3.35844 19.0441L10.002 11.3596L3.08589 4.3185C2.77926 3.99673 2.47263 3.3532 3.03478 2.72859C3.59693 2.10398 4.17611 2.40682 4.65309 2.86108L15.2828 12.4006L25.9295 2.86108C26.4065 2.40682 26.9857 2.10398 27.5479 2.72859Z" fill="#DEE0E2"/>
</svg>
