<svg width="30" height="28" viewBox="0 0 30 28" fill="none" xmlns="http://www.w3.org/2000/svg">
<path d="M6.88427 3.54412C6.88387 4.32414 6.56314 5.07206 5.99265 5.62335C5.42215 6.17463 4.64862 6.48412 3.84223 6.48373C3.03583 6.48334 2.26262 6.1731 1.6927 5.62127C1.12277 5.06943 0.80282 4.3212 0.803223 3.54118C0.803626 2.76115 1.12435 2.01323 1.69485 1.46195C2.26534 0.910662 3.03887 0.601173 3.84527 0.601563C4.65166 0.601953 5.42487 0.91219 5.9948 1.46403C6.56472 2.01586 6.88467 2.76409 6.88427 3.54412ZM6.97549 8.6616H0.894439V27.0728H6.97549V8.6616ZM16.5835 8.6616H10.5329V27.0728H16.5227V17.4113C16.5227 12.0291 23.7744 11.5292 23.7744 17.4113V27.0728H29.7794V15.4114C29.7794 6.33815 19.0464 6.67637 16.5227 11.1321L16.5835 8.6616Z" fill="#DEE0E2"/>
</svg>
