<svg width="37" height="36" viewBox="0 0 37 36" fill="none" xmlns="http://www.w3.org/2000/svg">
<path d="M35.9187 14.6873C34.0917 5.12035 24.8217 -1.17965 15.2547 0.647347C5.68773 2.47435 -0.61227 11.7443 1.21473 21.3113C2.79873 29.6003 10.0347 35.6123 18.4497 35.6573C18.2337 35.2703 18.0267 34.8834 17.8107 34.4963C10.2147 34.1544 3.77073 28.6283 2.33073 21.0954C0.62073 12.1403 6.51573 3.47335 15.4617 1.76335C24.4167 0.0533475 33.0837 5.94835 34.7937 14.8943C35.6217 19.2323 34.7127 23.6334 32.2287 27.2784V27.2964C31.8327 27.9083 31.2837 28.2773 30.6627 28.3493C30.1137 28.4123 29.5557 28.2143 29.1597 27.8183L25.7847 24.4163L25.9467 24.2543C27.1977 23.0033 27.8817 21.3473 27.8817 19.5743C27.8817 17.8013 27.1977 16.1453 25.9467 14.8943L24.6057 13.5533L21.6717 10.6193C20.4207 9.36835 18.7647 8.68435 16.9917 8.68435C15.2187 8.68435 13.5627 9.36835 12.3117 10.6193L11.1867 11.7533C9.93573 13.0043 9.25173 14.6603 9.25173 16.4333C9.25173 18.2063 9.93573 19.8623 11.1867 21.1133L14.1207 24.0473L15.4527 25.3883C16.7037 26.6393 18.3597 27.3233 20.1327 27.3233C21.9057 27.3233 23.5617 26.6393 24.8127 25.3883L24.9747 25.2263L28.3497 28.6284C28.9167 29.1954 29.6727 29.5103 30.4557 29.5103C30.5637 29.5103 30.6717 29.5103 30.7797 29.4923C31.7427 29.3843 32.5887 28.8353 33.1647 27.9443V27.9263H33.1737C35.8197 24.0203 36.7827 19.3313 35.9007 14.7053L35.9187 14.6873ZM11.9967 20.3033C10.9617 19.2683 10.3947 17.8913 10.3947 16.4243C10.3947 14.9573 10.9617 13.5893 11.9967 12.5543L13.1217 11.4203C14.1567 10.3853 15.5337 9.81835 17.0007 9.81835C18.4677 9.81835 19.8357 10.3853 20.8707 11.4203L23.4087 13.9583L18.9717 18.3953L14.5347 22.8323L11.9967 20.3033ZM24.0207 24.5783C22.9857 25.6133 21.6087 26.1803 20.1507 26.1803C18.6927 26.1803 17.3157 25.6133 16.2807 24.5783L15.3447 23.6423L19.3857 19.6013L20.0967 20.3123C19.8177 20.8973 19.9167 21.6263 20.4027 22.1123L21.6897 23.3993C21.9867 23.6963 22.3827 23.8583 22.8057 23.8583C23.0487 23.8583 23.2737 23.8043 23.4897 23.6963L24.2007 24.4074L24.0387 24.5693L24.0207 24.5783ZM21.1857 20.6813L21.2487 20.6183C21.3297 20.5373 21.4467 20.4833 21.5637 20.4833C21.6807 20.4833 21.7977 20.5283 21.8787 20.6183L23.1657 21.9053C23.2467 21.9863 23.2917 22.1033 23.2917 22.2204C23.2917 22.3373 23.2467 22.4543 23.1567 22.5353L23.0937 22.5983C22.9227 22.7694 22.6347 22.7694 22.4637 22.5983L21.1767 21.3113C21.0057 21.1403 21.0057 20.8523 21.1767 20.6813H21.1857ZM24.9837 23.6153L24.2727 22.9044C24.3717 22.6973 24.4347 22.4634 24.4347 22.2293C24.4347 21.8063 24.2727 21.4103 23.9757 21.1133L22.6887 19.8263C22.2207 19.3583 21.4827 19.2593 20.8977 19.5294L20.1777 18.8183L24.2187 14.7773L25.1547 15.7133C26.1897 16.7483 26.7567 18.1253 26.7567 19.5833C26.7567 21.0413 26.1897 22.4273 25.1547 23.4533L24.9927 23.6153H24.9837Z" fill="#FFF"/>
<path d="M6.03879 30.5181C3.59979 28.0791 1.84479 24.9111 1.16079 21.3291C-0.666209 11.7261 5.65179 2.42907 15.2458 0.602065C19.8898 -0.279935 24.5968 0.692065 28.5208 3.35607C32.4358 6.02007 35.0818 10.0431 35.9728 14.6781C36.8638 19.3131 35.8918 24.0291 33.2368 27.9351V27.9531H33.2188C32.6338 28.8711 31.7788 29.4291 30.7978 29.5281C30.6898 29.5371 30.5728 29.5461 30.4648 29.5461C29.6548 29.5461 28.8988 29.2311 28.3228 28.6551L24.9838 25.2891L24.8578 25.4151C23.5978 26.6751 21.9238 27.3681 20.1418 27.3681C18.3598 27.3681 16.6858 26.6751 15.4258 25.4151L11.1508 21.1401C9.89079 19.8801 9.19779 18.2061 9.19779 16.4241C9.19779 14.6421 9.89079 12.9681 11.1508 11.7081L12.2848 10.5741C13.5448 9.31406 15.2188 8.62107 17.0008 8.62107C18.7828 8.62107 20.4568 9.31406 21.7078 10.5741L24.6238 13.4991L24.6418 13.5171L25.9828 14.8581C27.2428 16.1181 27.9358 17.7921 27.9358 19.5741C27.9358 21.3561 27.2428 23.0301 25.9828 24.2901L25.8568 24.4161L29.2048 27.7821C29.5918 28.1691 30.1318 28.3581 30.6718 28.3041C31.2748 28.2411 31.8148 27.8721 32.1928 27.2871V27.2691C34.6678 23.6241 35.5768 19.2321 34.7488 14.9121C33.9208 10.5921 31.4638 6.85707 27.8188 4.38207C24.1738 1.90707 19.7908 0.998065 15.4708 1.82607C6.55179 3.51807 0.674791 12.1671 2.37579 21.0951C3.81579 28.6191 10.1608 34.1181 17.8108 34.4601H17.8378L17.8558 34.4871C17.9908 34.7301 18.1348 34.9821 18.2608 35.2251C18.3418 35.3691 18.4138 35.5041 18.4948 35.6481L18.5398 35.7201H18.4498C13.6618 35.6931 9.25179 33.7311 6.03879 30.5181ZM31.0498 5.57907C30.2668 4.79607 29.3938 4.07607 28.4578 3.43707C24.5608 0.791066 19.8718 -0.180934 15.2638 0.701066C5.72379 2.51907 -0.558209 11.7621 1.26879 21.3021C2.84379 29.5191 10.0258 35.5221 18.3688 35.6121C18.3058 35.4951 18.2428 35.3781 18.1798 35.2611C18.0538 35.0271 17.9188 34.7841 17.7928 34.5501C14.1118 34.3791 10.5478 32.9571 7.73979 30.5361C4.92279 28.1061 2.98779 24.7581 2.28579 21.1041C0.566791 12.1311 6.47079 3.43707 15.4528 1.71807C19.7998 0.890065 24.2098 1.79907 27.8728 4.29207C31.5358 6.78507 34.0198 10.5471 34.8478 14.8851C35.6758 19.2321 34.7668 23.6511 32.2738 27.3141C32.2738 27.3141 32.2738 27.3141 32.2738 27.3231C31.8778 27.9531 31.3108 28.3311 30.6718 28.4031C30.0958 28.4661 29.5378 28.2681 29.1238 27.8541L25.7128 24.4161L25.9108 24.2181C27.1528 22.9761 27.8368 21.3291 27.8368 19.5741C27.8368 17.8191 27.1528 16.1721 25.9198 14.9391L21.6448 10.6641C20.4028 9.42207 18.7558 8.73806 17.0008 8.73806C15.2458 8.73806 13.5988 9.42207 12.3568 10.6641L11.2228 11.7981C9.98079 13.0401 9.29679 14.6871 9.29679 16.4421C9.29679 18.1971 9.98079 19.8441 11.2138 21.0861L15.4888 25.3611C16.7308 26.6031 18.3778 27.2871 20.1328 27.2871C21.8878 27.2871 23.5348 26.6031 24.7768 25.3611L24.9748 25.1631L28.3858 28.6011C28.9438 29.1591 29.6818 29.4651 30.4558 29.4651C30.5638 29.4651 30.6718 29.4651 30.7798 29.4471C31.7248 29.3481 32.5528 28.8081 33.1198 27.9261V27.9081H33.1288V27.8901C35.7748 24.0021 36.7378 19.3221 35.8558 14.7141C35.1898 11.2131 33.5158 8.07207 31.0408 5.59707L31.0498 5.57907ZM11.9518 20.3391C10.9078 19.2951 10.3318 17.9091 10.3318 16.4241C10.3318 14.9391 10.9078 13.5621 11.9518 12.5181L13.0858 11.3841C14.1298 10.3401 15.5158 9.76407 17.0008 9.76407C18.4858 9.76407 19.8628 10.3401 20.9068 11.3841L23.4808 13.9581L19.0078 18.4311V18.4491H18.9898L14.5348 22.9041L11.9608 20.3391H11.9518ZM23.3278 13.9581L20.8258 11.4561C19.7998 10.4301 18.4408 9.86306 16.9918 9.86306C15.5428 9.86306 14.1748 10.4301 13.1488 11.4561L12.0148 12.5901C10.9888 13.6161 10.4218 14.9751 10.4218 16.4241C10.4218 17.8731 10.9888 19.2411 12.0148 20.2671L14.5168 22.7691L23.3278 13.9671V13.9581ZM16.2268 24.6141L15.2548 23.6421L19.3678 19.5291L20.1418 20.3031L20.1238 20.3391C19.8448 20.9241 19.9618 21.6261 20.4118 22.0761L21.6988 23.3631C21.9868 23.6511 22.3738 23.8131 22.7788 23.8131C23.0038 23.8131 23.2198 23.7591 23.4358 23.6601L23.4718 23.6421L24.2458 24.4161L24.0478 24.6141C23.0038 25.6581 21.6178 26.2341 20.1418 26.2341C18.6658 26.2341 17.2798 25.6581 16.2358 24.6141H16.2268ZM15.3988 23.6421L16.2988 24.5421C17.3248 25.5681 18.6838 26.1351 20.1328 26.1351C21.5818 26.1351 22.9498 25.5681 23.9668 24.5421L24.0928 24.4161L23.4448 23.7681C23.2288 23.8671 23.0038 23.9211 22.7788 23.9211C22.3468 23.9211 21.9328 23.7501 21.6268 23.4441L20.3398 22.1571C19.8628 21.6801 19.7368 20.9511 20.0158 20.3301L19.3678 19.6821L15.3988 23.6511V23.6421ZM21.1498 21.3471C21.0598 21.2571 21.0058 21.1311 21.0058 20.9961C21.0058 20.8611 21.0598 20.7351 21.1498 20.6451L21.2128 20.5821C21.3028 20.4921 21.4288 20.4381 21.5638 20.4381C21.6988 20.4381 21.8158 20.4921 21.9148 20.5821L23.2018 21.8691C23.2918 21.9591 23.3458 22.0851 23.3458 22.2201C23.3458 22.3551 23.2918 22.4811 23.2018 22.5711L23.1388 22.6341C23.0488 22.7241 22.9228 22.7781 22.7878 22.7781C22.6528 22.7781 22.5268 22.7241 22.4368 22.6341L21.1498 21.3471ZM21.2218 20.7171C21.1498 20.7891 21.1048 20.8881 21.1048 20.9961C21.1048 21.1041 21.1498 21.2031 21.2218 21.2751L22.5088 22.5621C22.5808 22.6341 22.6798 22.6701 22.7878 22.6701C22.8958 22.6701 22.9948 22.6251 23.0668 22.5621L23.1298 22.4991C23.2018 22.4271 23.2468 22.3281 23.2468 22.2201C23.2468 22.1121 23.2018 22.0131 23.1298 21.9411L21.8428 20.6541C21.7708 20.5821 21.6718 20.5371 21.5638 20.5371C21.4558 20.5371 21.3568 20.5821 21.2848 20.6541L21.2218 20.7171ZM24.9838 23.6871L24.2098 22.9131L24.2278 22.8771C24.3268 22.6611 24.3808 22.4451 24.3808 22.2201C24.3808 21.8061 24.2188 21.4281 23.9308 21.1401L22.6438 19.8531C22.2118 19.4211 21.5008 19.2951 20.9068 19.5651L20.8708 19.5831L20.0968 18.8091L24.2098 14.7051L25.1818 15.6771C26.2258 16.7211 26.8018 18.1071 26.8018 19.5831C26.8018 21.0591 26.2258 22.4451 25.1818 23.4891L24.9838 23.6871ZM24.3358 22.8951L24.9838 23.5431L25.1098 23.4171C26.1358 22.3911 26.7028 21.0321 26.7028 19.5831C26.7028 18.1341 26.1358 16.7661 25.1098 15.7491L24.2098 14.8491L20.2408 18.8181L20.8978 19.4751C21.5188 19.2141 22.2568 19.3401 22.7158 19.7991L24.0028 21.0861C24.3088 21.3921 24.4798 21.8061 24.4798 22.2381C24.4798 22.4631 24.4258 22.6881 24.3268 22.9041L24.3358 22.8951Z" fill="#FFF"/>
<path d="M36.1885 14.6338C35.2885 9.93582 32.6065 5.85882 28.6375 3.15882C24.6685 0.458823 19.8895 -0.531178 15.1915 0.368822C5.48047 2.23182 -0.918527 11.6458 0.935473 21.3658C2.55547 29.8168 9.95347 35.9458 18.5575 35.9458C18.5755 35.9458 18.5845 35.9458 18.6025 35.9458C18.4945 35.7568 18.3955 35.5678 18.2875 35.3788C10.0795 35.2618 3.04147 29.3578 1.49347 21.2578C-0.306526 11.8438 5.89447 2.72682 15.2995 0.926823C16.3975 0.719823 17.4955 0.611822 18.5845 0.611822C22.0315 0.611822 25.3975 1.63782 28.3225 3.62682C32.1655 6.23682 34.7665 10.1878 35.6305 14.7418C36.4945 19.2778 35.5495 23.8858 32.9665 27.7198L32.9485 27.7378L32.9125 27.8098C32.3815 28.6198 31.6165 29.1148 30.7525 29.2048C29.9335 29.2948 29.1325 29.0068 28.5475 28.4218L24.9745 24.8218L24.6145 25.1818C23.4175 26.3788 21.8245 27.0358 20.1415 27.0358C18.4585 27.0358 16.8565 26.3788 15.6685 25.1818L11.3935 20.9068C10.1965 19.7098 9.53947 18.1258 9.53947 16.4338C9.53947 14.7418 10.1965 13.1488 11.3935 11.9608L12.5185 10.8268C13.7155 9.62982 15.3085 8.97282 17.0005 8.97282C18.6925 8.97282 20.2855 9.62982 21.4735 10.8268L24.4075 13.7608L24.4795 13.8508H24.4975L25.7485 15.1018C26.9455 16.2988 27.6025 17.8828 27.6025 19.5748C27.6025 21.2668 26.9455 22.8598 25.7485 24.0478L25.3885 24.4078L28.9705 28.0078C29.4295 28.4668 30.0685 28.6918 30.7075 28.6198C31.4095 28.5388 32.0305 28.1338 32.4625 27.4678L32.4985 27.4048C35.0095 23.6968 35.9275 19.2328 35.0815 14.8408C34.2445 10.4398 31.7335 6.62382 28.0075 4.09482C24.2905 1.56582 19.8175 0.638822 15.4075 1.48482C6.30847 3.23082 0.314473 12.0508 2.05147 21.1588C3.52747 28.8808 10.1785 34.5418 17.9725 34.8028C17.8645 34.6048 17.7565 34.4158 17.6395 34.2178C10.2595 33.8038 4.01347 28.3948 2.60947 21.0508C0.926473 12.2488 6.72247 3.72582 15.5155 2.04282C19.7725 1.23282 24.0925 2.12382 27.6925 4.56282C31.2835 7.00182 33.7135 10.6918 34.5235 14.9488C35.3335 19.1968 34.4515 23.5078 32.0215 27.0988L31.9945 27.1168L31.9765 27.1618C31.6345 27.6838 31.1575 27.9988 30.6355 28.0528C30.1675 28.1068 29.6995 27.9358 29.3575 27.6028L26.1805 24.3988C27.4585 23.1028 28.1695 21.3838 28.1695 19.5568C28.1695 17.7298 27.4495 15.9838 26.1445 14.6788L21.8695 10.4038C20.5645 9.09882 18.8365 8.37882 16.9915 8.37882C15.1465 8.37882 13.4185 9.09882 12.1135 10.3948L10.9885 11.5288C9.68347 12.8338 8.96347 14.5618 8.96347 16.4068C8.96347 18.2518 9.68347 19.9798 10.9885 21.2848L15.2635 25.5598C16.5685 26.8648 18.2965 27.5848 20.1415 27.5848C21.9865 27.5848 23.6785 26.8828 24.9835 25.6048L28.1605 28.7998C28.8625 29.5018 29.8345 29.8528 30.8245 29.7448C31.8505 29.6368 32.7505 29.0608 33.3715 28.1338L33.4255 28.0888L33.4525 28.0258C36.1255 24.0658 37.1065 19.3048 36.2065 14.6158L36.1885 14.6338Z" fill="#FFF"/>
<path d="M5.84066 30.7168C3.35666 28.2328 1.58366 25.0198 0.890658 21.3748C-0.972342 11.6278 5.44466 2.18677 15.1917 0.323775C19.9077 -0.576225 24.6957 0.413775 28.6737 3.12277C32.6517 5.82277 35.3427 9.90878 36.2427 14.6248C37.1427 19.3318 36.1617 24.1018 33.4797 28.0708L33.4527 28.1338L33.3987 28.1878C32.7777 29.1148 31.8597 29.6998 30.8247 29.8078C29.8257 29.9158 28.8357 29.5648 28.1157 28.8538L24.9747 25.6948C23.6697 26.9638 21.9507 27.6568 20.1327 27.6568C18.3147 27.6568 16.5327 26.9368 15.2187 25.6228L10.9437 21.3478C9.62966 20.0338 8.90966 18.2878 8.90966 16.4338C8.90966 14.5798 9.62966 12.8338 10.9437 11.5198L12.0687 10.3858C13.3827 9.07177 15.1287 8.35177 16.9827 8.35177C18.8367 8.35177 20.5827 9.07177 21.8967 10.3858L26.1717 14.6608C27.4857 15.9748 28.2057 17.7208 28.2057 19.5748C28.2057 21.4288 27.5037 23.1118 26.2347 24.4168L29.3847 27.5848C29.7177 27.9178 30.1677 28.0708 30.6177 28.0258C31.1307 27.9718 31.5897 27.6568 31.9227 27.1528L31.9407 27.0988L31.9767 27.0718C34.3887 23.4898 35.2797 19.1968 34.4697 14.9578C33.6597 10.7188 31.2387 7.03778 27.6567 4.60777C24.0747 2.17777 19.7637 1.27777 15.5247 2.08777C6.74966 3.76178 0.980658 12.2668 2.65466 21.0328C4.04966 28.3498 10.2147 33.7498 17.6397 34.1638H17.6667L17.6847 34.1908C17.8017 34.3888 17.9187 34.5778 18.0177 34.7758L18.0627 34.8568H17.9727C14.1837 34.7218 10.5027 33.2908 7.61366 30.8158C4.71566 28.3318 2.71766 24.9118 2.00666 21.1678C0.260658 12.0328 6.27266 3.18577 15.3987 1.43977C19.8177 0.593775 24.2997 1.52978 28.0347 4.05877C31.7607 6.58778 34.2807 10.4218 35.1267 14.8408C35.9727 19.2508 35.0457 23.7238 32.5347 27.4498L32.4987 27.5128C32.0577 28.1968 31.4187 28.6108 30.7077 28.6918C30.0507 28.7638 29.4027 28.5388 28.9257 28.0618L25.3077 24.4258L25.7037 24.0298C26.8917 22.8418 27.5397 21.2668 27.5397 19.5928C27.5397 17.9188 26.8827 16.3348 25.7037 15.1558L24.4617 13.9138H24.4347L24.3537 13.8058L21.4287 10.8808C20.2407 9.69277 18.6657 9.04478 16.9917 9.04478C15.3177 9.04478 13.7337 9.70177 12.5457 10.8808L11.4207 12.0148C10.2327 13.2028 9.58466 14.7778 9.57566 16.4608C9.57566 18.1348 10.2327 19.7188 11.4117 20.8978L15.6867 25.1728C16.8747 26.3608 18.4497 27.0088 20.1327 27.0088C21.8067 27.0088 23.3907 26.3518 24.5787 25.1638L24.9747 24.7678L28.5837 28.4038C29.1597 28.9798 29.9427 29.2588 30.7437 29.1688C31.5897 29.0788 32.3457 28.5928 32.8677 27.7918L32.9127 27.7108L32.9307 27.6928C35.5047 23.8768 36.4407 19.2868 35.5767 14.7598C34.7127 10.2148 32.1207 6.28177 28.2867 3.68077C25.3887 1.71877 22.0317 0.674775 18.5757 0.674775C17.4867 0.674775 16.3797 0.782775 15.2997 0.989775C5.93066 2.77177 -0.252342 11.8618 1.53866 21.2488C3.07766 29.2858 10.1157 35.2078 18.2877 35.3248H18.3147L18.3327 35.3518C18.4317 35.5408 18.5397 35.7298 18.6477 35.9098L18.6837 35.9818H18.5937C18.5937 35.9818 18.5667 35.9998 18.5577 35.9998C13.6527 35.9998 9.12566 34.0018 5.84066 30.7168ZM31.2567 5.38177C30.4557 4.58077 29.5737 3.85177 28.6197 3.20377C24.6597 0.512775 19.8987 -0.468226 15.2097 0.422774C5.51666 2.27677 -0.864342 11.6638 0.989658 21.3568C2.60066 29.7718 9.97166 35.8828 18.5217 35.9008C18.4317 35.7478 18.3507 35.5858 18.2607 35.4328C14.2917 35.3698 10.4217 33.9208 7.36166 31.3558C4.30166 28.7818 2.19566 25.1998 1.43966 21.2758C-0.360342 11.8258 5.85866 2.68177 15.2907 0.881775C16.3797 0.674775 17.4867 0.566775 18.5847 0.566775C22.0587 0.566775 25.4427 1.61077 28.3497 3.59077C32.2017 6.20977 34.8117 10.1698 35.6847 14.7328C36.5577 19.2868 35.6037 23.9038 33.0117 27.7468L32.9937 27.7648L32.9577 27.8278C32.4177 28.6468 31.6347 29.1508 30.7617 29.2498C29.9337 29.3398 29.1147 29.0518 28.5207 28.4578L24.9747 24.8938L24.6507 25.2178C23.4447 26.4238 21.8427 27.0898 20.1417 27.0898C18.4407 27.0898 16.8387 26.4238 15.6327 25.2178L11.3577 20.9428C10.1517 19.7368 9.48566 18.1348 9.48566 16.4338C9.48566 14.7328 10.1517 13.1308 11.3577 11.9248L12.4827 10.7908C13.6887 9.58477 15.2907 8.91877 17.0007 8.91877C18.7107 8.91877 20.3037 9.58477 21.5097 10.7908L24.4437 13.7248L24.4977 13.7968H24.5157L25.7847 15.0658C26.9907 16.2718 27.6477 17.8738 27.6477 19.5748C27.6477 21.2758 26.9817 22.8778 25.7757 24.0838L25.4427 24.4168L28.9887 27.9808C29.4387 28.4308 30.0597 28.6468 30.6807 28.5838C31.3647 28.5118 31.9767 28.1068 32.3997 27.4498L32.4357 27.3868C34.9377 23.6878 35.8557 19.2418 35.0097 14.8588C34.1727 10.4668 31.6707 6.65977 27.9627 4.14877C24.2547 1.62877 19.7907 0.701775 15.4077 1.54777C6.34466 3.27577 0.368658 12.0688 2.10566 21.1498C3.55466 28.7368 10.1877 34.4428 17.8917 34.7488C17.8017 34.5868 17.7117 34.4338 17.6127 34.2718C10.1517 33.8398 3.96866 28.4128 2.56466 21.0598C0.881658 12.2308 6.68666 3.68077 15.5157 1.99777C19.7817 1.17877 24.1197 2.07877 27.7287 4.52677C31.3287 6.97477 33.7677 10.6738 34.5867 14.9398C35.3967 19.1968 34.5057 23.5258 32.0757 27.1348L32.0577 27.1618V27.1978C31.6887 27.7378 31.2027 28.0618 30.6627 28.1248C30.1767 28.1788 29.6997 28.0078 29.3487 27.6568L26.1357 24.4168L26.1717 24.3808C27.4407 23.0938 28.1427 21.3838 28.1427 19.5748C28.1427 17.7658 27.4317 16.0288 26.1357 14.7328L21.8607 10.4578C20.5647 9.16177 18.8457 8.45078 17.0187 8.45078C15.1917 8.45078 13.4727 9.16177 12.1767 10.4578L11.0517 11.5918C9.75566 12.8878 9.04466 14.6068 9.04466 16.4338C9.04466 18.2608 9.75566 19.9798 11.0517 21.2758L15.3267 25.5508C16.6227 26.8468 18.3417 27.5578 20.1687 27.5578C21.9957 27.5578 23.6787 26.8558 24.9747 25.5868L25.0107 25.5508L28.2237 28.7818C28.9167 29.4748 29.8707 29.8168 30.8517 29.7088C31.8597 29.6008 32.7507 29.0338 33.3627 28.1248L33.4077 28.0798L33.4257 28.0258C36.0987 24.0658 37.0707 19.3228 36.1797 14.6428C35.5047 11.0878 33.7947 7.89277 31.2927 5.38177H31.2567Z" fill="#FFF"/>
<path d="M19.1967 18.5661L23.8047 13.9581L21.0687 11.2221C19.9797 10.1331 18.5307 9.53906 16.9917 9.53906C15.4527 9.53906 14.0037 10.1421 12.9147 11.2311L11.7897 12.3651C10.7007 13.4541 10.0977 14.9031 10.0977 16.4421C10.0977 17.9811 10.7007 19.4301 11.7897 20.5191L14.5257 23.2551L19.0797 18.7011H19.1427L19.1967 18.5841V18.5661ZM14.5257 22.4361L12.1947 20.1051C11.2137 19.1241 10.6737 17.8191 10.6737 16.4331C10.6737 15.0471 11.2137 13.7421 12.1947 12.7611L13.3197 11.6271C14.3007 10.6461 15.6057 10.1061 16.9917 10.1061C18.3777 10.1061 19.6827 10.6461 20.6637 11.6271L22.9947 13.9581L14.5167 22.4361H14.5257Z" fill="#FFF"/>
<path d="M11.7537 20.5376C10.6557 19.4396 10.0527 17.9816 10.0527 16.4246C10.0527 14.8766 10.6557 13.4096 11.7537 12.3116L12.8787 11.1776C13.9767 10.0796 15.4347 9.47656 16.9917 9.47656C18.5397 9.47656 20.0067 10.0796 21.1047 11.1776L23.8767 13.9496L19.2417 18.5846L19.1787 18.7196H19.1067L14.5347 23.2916L11.7627 20.5196L11.7537 20.5376ZM21.0327 11.2586C19.9527 10.1786 18.5217 9.58456 16.9917 9.58456C15.4707 9.58456 14.0307 10.1786 12.9507 11.2586L11.8257 12.3926C10.7457 13.4726 10.1517 14.9036 10.1517 16.4336C10.1517 17.9636 10.7457 19.3946 11.8257 20.4746L14.5257 23.1746L19.0617 18.6386H19.1157L19.1697 18.5396L23.7417 13.9676L21.0417 11.2676L21.0327 11.2586ZM12.1587 20.1416C11.1687 19.1516 10.6197 17.8286 10.6197 16.4336C10.6197 15.0386 11.1687 13.7156 12.1587 12.7256L13.2837 11.5916C14.2737 10.6016 15.5967 10.0526 16.9917 10.0526C18.3867 10.0526 19.7097 10.6016 20.6997 11.5916L23.0667 13.9586L14.5167 22.5086L12.1497 20.1416H12.1587ZM20.6367 11.6636C19.6647 10.6916 18.3687 10.1606 17.0007 10.1606C15.6327 10.1606 14.3367 10.6916 13.3647 11.6636L12.2397 12.7976C11.2677 13.7696 10.7367 15.0656 10.7367 16.4336C10.7367 17.8016 11.2587 19.0796 12.2217 20.0516L14.5437 22.3736L22.9497 13.9676L20.6457 11.6636H20.6367Z" fill="#FFF"/>
</svg>
