<svg width="37" height="36" viewBox="0 0 37 36" fill="none" xmlns="http://www.w3.org/2000/svg">
  <path d="M35.843 14.6873C34.016 5.12035 24.746 -1.17965 15.179 0.647347C5.61205 2.47435 -0.687954 11.7443 1.13905 21.3113C2.72305 29.6003 9.95905 35.6123 18.374 35.6573C18.158 35.2703 17.951 34.8834 17.735 34.4963C10.139 34.1544 3.69505 28.6283 2.25505 21.0954C0.545047 12.1403 6.44005 3.47335 15.386 1.76335C24.341 0.0533475 33.008 5.94835 34.718 14.8943C35.546 19.2323 34.6371 23.6334 32.153 27.2784V27.2964C31.757 27.9083 31.208 28.2773 30.587 28.3493C30.038 28.4123 29.48 28.2143 29.084 27.8183L25.709 24.4163L25.871 24.2543C27.122 23.0033 27.806 21.3473 27.806 19.5743C27.806 17.8013 27.122 16.1453 25.871 14.8943L24.53 13.5533L21.596 10.6193C20.345 9.36835 18.689 8.68435 16.916 8.68435C15.143 8.68435 13.487 9.36835 12.236 10.6193L11.111 11.7533C9.86005 13.0043 9.17605 14.6603 9.17605 16.4333C9.17605 18.2063 9.86005 19.8623 11.111 21.1133L14.045 24.0473L15.377 25.3883C16.628 26.6393 18.284 27.3233 20.057 27.3233C21.83 27.3233 23.486 26.6393 24.737 25.3883L24.899 25.2263L28.274 28.6284C28.841 29.1954 29.597 29.5103 30.38 29.5103C30.488 29.5103 30.596 29.5103 30.704 29.4923C31.667 29.3843 32.5131 28.8353 33.0891 27.9443V27.9263H33.098C35.744 24.0203 36.707 19.3313 35.825 14.7053L35.843 14.6873ZM11.921 20.3033C10.886 19.2683 10.319 17.8913 10.319 16.4243C10.319 14.9573 10.886 13.5893 11.921 12.5543L13.046 11.4203C14.081 10.3853 15.458 9.81835 16.925 9.81835C18.392 9.81835 19.76 10.3853 20.795 11.4203L23.333 13.9583L18.896 18.3953L14.459 22.8323L11.921 20.3033ZM23.945 24.5783C22.91 25.6133 21.533 26.1803 20.075 26.1803C18.617 26.1803 17.24 25.6133 16.205 24.5783L15.269 23.6423L19.31 19.6013L20.021 20.3123C19.742 20.8973 19.841 21.6263 20.327 22.1123L21.614 23.3993C21.911 23.6963 22.307 23.8583 22.73 23.8583C22.973 23.8583 23.198 23.8043 23.414 23.6963L24.125 24.4074L23.963 24.5693L23.945 24.5783ZM21.11 20.6813L21.173 20.6183C21.254 20.5373 21.371 20.4833 21.488 20.4833C21.605 20.4833 21.722 20.5283 21.803 20.6183L23.09 21.9053C23.171 21.9863 23.216 22.1033 23.216 22.2204C23.216 22.3373 23.171 22.4543 23.081 22.5353L23.018 22.5983C22.847 22.7694 22.559 22.7694 22.388 22.5983L21.101 21.3113C20.93 21.1403 20.93 20.8523 21.101 20.6813H21.11ZM24.908 23.6153L24.197 22.9044C24.296 22.6973 24.359 22.4634 24.359 22.2293C24.359 21.8063 24.197 21.4103 23.9 21.1133L22.613 19.8263C22.145 19.3583 21.407 19.2593 20.822 19.5294L20.102 18.8183L24.143 14.7773L25.079 15.7133C26.114 16.7483 26.681 18.1253 26.681 19.5833C26.681 21.0413 26.114 22.4273 25.079 23.4533L24.917 23.6153H24.908Z" fill="#FFFFFF" />
  <path d="M5.96311 30.5181C3.52411 28.0791 1.76911 24.9111 1.08511 21.3291C-0.741893 11.7261 5.57611 2.42907 15.1701 0.602065C19.8141 -0.279935 24.5211 0.692065 28.4451 3.35607C32.3601 6.02007 35.0061 10.0431 35.8971 14.6781C36.7881 19.3131 35.8161 24.0291 33.1611 27.9351V27.9531H33.1431C32.5581 28.8711 31.7031 29.4291 30.7221 29.5281C30.6141 29.5371 30.4971 29.5461 30.3891 29.5461C29.5791 29.5461 28.8231 29.2311 28.2471 28.6551L24.9081 25.2891L24.7821 25.4151C23.5221 26.6751 21.8481 27.3681 20.0661 27.3681C18.2841 27.3681 16.6101 26.6751 15.3501 25.4151L11.0751 21.1401C9.81511 19.8801 9.12211 18.2061 9.12211 16.4241C9.12211 14.6421 9.81511 12.9681 11.0751 11.7081L12.2091 10.5741C13.4691 9.31406 15.1431 8.62107 16.9251 8.62107C18.7071 8.62107 20.3811 9.31406 21.6321 10.5741L24.5481 13.4991L24.5661 13.5171L25.9071 14.8581C27.1671 16.1181 27.8601 17.7921 27.8601 19.5741C27.8601 21.3561 27.1671 23.0301 25.9071 24.2901L25.7811 24.4161L29.1291 27.7821C29.5161 28.1691 30.0561 28.3581 30.5961 28.3041C31.1991 28.2411 31.7391 27.8721 32.1171 27.2871V27.2691C34.5921 23.6241 35.5011 19.2321 34.6731 14.9121C33.8451 10.5921 31.3881 6.85707 27.7431 4.38207C24.0981 1.90707 19.7151 0.998065 15.3951 1.82607C6.47611 3.51807 0.599108 12.1671 2.30011 21.0951C3.74011 28.6191 10.0851 34.1181 17.7351 34.4601H17.7621L17.7801 34.4871C17.9151 34.7301 18.0591 34.9821 18.1851 35.2251C18.2661 35.3691 18.3381 35.5041 18.4191 35.6481L18.4641 35.7201H18.3741C13.5861 35.6931 9.17611 33.7311 5.96311 30.5181ZM30.9741 5.57907C30.1911 4.79607 29.3181 4.07607 28.3821 3.43707C24.4851 0.791066 19.7961 -0.180934 15.1881 0.701066C5.64811 2.51907 -0.633892 11.7621 1.19311 21.3021C2.76811 29.5191 9.95011 35.5221 18.2931 35.6121C18.2301 35.4951 18.1671 35.3781 18.1041 35.2611C17.9781 35.0271 17.8431 34.7841 17.7171 34.5501C14.0361 34.3791 10.4721 32.9571 7.66411 30.5361C4.84711 28.1061 2.91211 24.7581 2.21011 21.1041C0.491107 12.1311 6.39511 3.43707 15.3771 1.71807C19.7241 0.890065 24.1341 1.79907 27.7971 4.29207C31.4601 6.78507 33.9441 10.5471 34.7721 14.8851C35.6001 19.2321 34.6911 23.6511 32.1981 27.3141C32.1981 27.3141 32.1981 27.3141 32.1981 27.3231C31.8021 27.9531 31.2351 28.3311 30.5961 28.4031C30.0201 28.4661 29.4621 28.2681 29.0481 27.8541L25.6371 24.4161L25.8351 24.2181C27.0771 22.9761 27.7611 21.3291 27.7611 19.5741C27.7611 17.8191 27.0771 16.1721 25.8441 14.9391L21.5691 10.6641C20.3271 9.42207 18.6801 8.73806 16.9251 8.73806C15.1701 8.73806 13.5231 9.42207 12.2811 10.6641L11.1471 11.7981C9.90511 13.0401 9.22111 14.6871 9.22111 16.4421C9.22111 18.1971 9.90511 19.8441 11.1381 21.0861L15.4131 25.3611C16.6551 26.6031 18.3021 27.2871 20.0571 27.2871C21.8121 27.2871 23.4591 26.6031 24.7011 25.3611L24.8991 25.1631L28.3101 28.6011C28.8681 29.1591 29.6061 29.4651 30.3801 29.4651C30.4881 29.4651 30.5961 29.4651 30.7041 29.4471C31.6491 29.3481 32.4771 28.8081 33.0441 27.9261V27.9081H33.0531V27.8901C35.6991 24.0021 36.6621 19.3221 35.7801 14.7141C35.1141 11.2131 33.4401 8.07207 30.9651 5.59707L30.9741 5.57907ZM11.8761 20.3391C10.8321 19.2951 10.2561 17.9091 10.2561 16.4241C10.2561 14.9391 10.8321 13.5621 11.8761 12.5181L13.0101 11.3841C14.0541 10.3401 15.4401 9.76407 16.9251 9.76407C18.4101 9.76407 19.7871 10.3401 20.8311 11.3841L23.4051 13.9581L18.9321 18.4311V18.4491H18.9141L14.4591 22.9041L11.8851 20.3391H11.8761ZM23.2521 13.9581L20.7501 11.4561C19.7241 10.4301 18.3651 9.86306 16.9161 9.86306C15.4671 9.86306 14.0991 10.4301 13.0731 11.4561L11.9391 12.5901C10.9131 13.6161 10.3461 14.9751 10.3461 16.4241C10.3461 17.8731 10.9131 19.2411 11.9391 20.2671L14.4411 22.7691L23.2521 13.9671V13.9581ZM16.1511 24.6141L15.1791 23.6421L19.2921 19.5291L20.0661 20.3031L20.0481 20.3391C19.7691 20.9241 19.8861 21.6261 20.3361 22.0761L21.6231 23.3631C21.9111 23.6511 22.2981 23.8131 22.7031 23.8131C22.9281 23.8131 23.1441 23.7591 23.3601 23.6601L23.3961 23.6421L24.1701 24.4161L23.9721 24.6141C22.9281 25.6581 21.5421 26.2341 20.0661 26.2341C18.5901 26.2341 17.2041 25.6581 16.1601 24.6141H16.1511ZM15.3231 23.6421L16.2231 24.5421C17.2491 25.5681 18.6081 26.1351 20.0571 26.1351C21.5061 26.1351 22.8741 25.5681 23.8911 24.5421L24.0171 24.4161L23.3691 23.7681C23.1531 23.8671 22.9281 23.9211 22.7031 23.9211C22.2711 23.9211 21.8571 23.7501 21.5511 23.4441L20.2641 22.1571C19.7871 21.6801 19.6611 20.9511 19.9401 20.3301L19.2921 19.6821L15.3231 23.6511V23.6421ZM21.0741 21.3471C20.9841 21.2571 20.9301 21.1311 20.9301 20.9961C20.9301 20.8611 20.9841 20.7351 21.0741 20.6451L21.1371 20.5821C21.2271 20.4921 21.3531 20.4381 21.4881 20.4381C21.6231 20.4381 21.7401 20.4921 21.8391 20.5821L23.1261 21.8691C23.2161 21.9591 23.2701 22.0851 23.2701 22.2201C23.2701 22.3551 23.2161 22.4811 23.1261 22.5711L23.0631 22.6341C22.9731 22.7241 22.8471 22.7781 22.7121 22.7781C22.5771 22.7781 22.4511 22.7241 22.3611 22.6341L21.0741 21.3471ZM21.1461 20.7171C21.0741 20.7891 21.0291 20.8881 21.0291 20.9961C21.0291 21.1041 21.0741 21.2031 21.1461 21.2751L22.4331 22.5621C22.5051 22.6341 22.6041 22.6701 22.7121 22.6701C22.8201 22.6701 22.9191 22.6251 22.9911 22.5621L23.0541 22.4991C23.1261 22.4271 23.1711 22.3281 23.1711 22.2201C23.1711 22.1121 23.1261 22.0131 23.0541 21.9411L21.7671 20.6541C21.6951 20.5821 21.5961 20.5371 21.4881 20.5371C21.3801 20.5371 21.2811 20.5821 21.2091 20.6541L21.1461 20.7171ZM24.9081 23.6871L24.1341 22.9131L24.1521 22.8771C24.2511 22.6611 24.3051 22.4451 24.3051 22.2201C24.3051 21.8061 24.1431 21.4281 23.8551 21.1401L22.5681 19.8531C22.1361 19.4211 21.4251 19.2951 20.8311 19.5651L20.7951 19.5831L20.0211 18.8091L24.1341 14.7051L25.1061 15.6771C26.1501 16.7211 26.7261 18.1071 26.7261 19.5831C26.7261 21.0591 26.1501 22.4451 25.1061 23.4891L24.9081 23.6871ZM24.2601 22.8951L24.9081 23.5431L25.0341 23.4171C26.0601 22.3911 26.6271 21.0321 26.6271 19.5831C26.6271 18.1341 26.0601 16.7661 25.0341 15.7491L24.1341 14.8491L20.1651 18.8181L20.8221 19.4751C21.4431 19.2141 22.1811 19.3401 22.6401 19.7991L23.9271 21.0861C24.2331 21.3921 24.4041 21.8061 24.4041 22.2381C24.4041 22.4631 24.3501 22.6881 24.2511 22.9041L24.2601 22.8951Z" fill="#FFFFFF" />
  <path d="M36.1128 14.6338C35.2128 9.93582 32.5308 5.85882 28.5618 3.15882C24.5928 0.458823 19.8138 -0.531178 15.1158 0.368822C5.40479 2.23182 -0.99421 11.6458 0.85979 21.3658C2.47979 29.8168 9.87779 35.9458 18.4818 35.9458C18.4998 35.9458 18.5088 35.9458 18.5268 35.9458C18.4188 35.7568 18.3198 35.5678 18.2118 35.3788C10.0038 35.2618 2.96579 29.3578 1.41779 21.2578C-0.38221 11.8438 5.81879 2.72682 15.2238 0.926823C16.3218 0.719823 17.4198 0.611822 18.5088 0.611822C21.9558 0.611822 25.3218 1.63782 28.2468 3.62682C32.0898 6.23682 34.6908 10.1878 35.5548 14.7418C36.4188 19.2778 35.4738 23.8858 32.8908 27.7198L32.8728 27.7378L32.8368 27.8098C32.3058 28.6198 31.5408 29.1148 30.6768 29.2048C29.8578 29.2948 29.0568 29.0068 28.4718 28.4218L24.8988 24.8218L24.5388 25.1818C23.3418 26.3788 21.7488 27.0358 20.0658 27.0358C18.3828 27.0358 16.7808 26.3788 15.5928 25.1818L11.3178 20.9068C10.1208 19.7098 9.46379 18.1258 9.46379 16.4338C9.46379 14.7418 10.1208 13.1488 11.3178 11.9608L12.4428 10.8268C13.6398 9.62982 15.2328 8.97282 16.9248 8.97282C18.6168 8.97282 20.2098 9.62982 21.3978 10.8268L24.3318 13.7608L24.4038 13.8508H24.4218L25.6728 15.1018C26.8698 16.2988 27.5268 17.8828 27.5268 19.5748C27.5268 21.2668 26.8698 22.8598 25.6728 24.0478L25.3128 24.4078L28.8948 28.0078C29.3538 28.4668 29.9928 28.6918 30.6318 28.6198C31.3338 28.5388 31.9548 28.1338 32.3868 27.4678L32.4228 27.4048C34.9338 23.6968 35.8518 19.2328 35.0058 14.8408C34.1688 10.4398 31.6578 6.62382 27.9318 4.09482C24.2148 1.56582 19.7418 0.638822 15.3318 1.48482C6.23279 3.23082 0.23879 12.0508 1.97579 21.1588C3.45179 28.8808 10.1028 34.5418 17.8968 34.8028C17.7888 34.6048 17.6808 34.4158 17.5638 34.2178C10.1838 33.8038 3.93779 28.3948 2.53379 21.0508C0.85079 12.2488 6.64679 3.72582 15.4398 2.04282C19.6968 1.23282 24.0168 2.12382 27.6168 4.56282C31.2078 7.00182 33.6378 10.6918 34.4478 14.9488C35.2578 19.1968 34.3758 23.5078 31.9458 27.0988L31.9188 27.1168L31.9008 27.1618C31.5588 27.6838 31.0818 27.9988 30.5598 28.0528C30.0918 28.1068 29.6238 27.9358 29.2818 27.6028L26.1048 24.3988C27.3828 23.1028 28.0938 21.3838 28.0938 19.5568C28.0938 17.7298 27.3738 15.9838 26.0688 14.6788L21.7938 10.4038C20.4888 9.09882 18.7608 8.37882 16.9158 8.37882C15.0708 8.37882 13.3428 9.09882 12.0378 10.3948L10.9128 11.5288C9.60779 12.8338 8.88779 14.5618 8.88779 16.4068C8.88779 18.2518 9.60779 19.9798 10.9128 21.2848L15.1878 25.5598C16.4928 26.8648 18.2208 27.5848 20.0658 27.5848C21.9108 27.5848 23.6028 26.8828 24.9078 25.6048L28.0848 28.7998C28.7868 29.5018 29.7588 29.8528 30.7488 29.7448C31.7748 29.6368 32.6748 29.0608 33.2958 28.1338L33.3498 28.0888L33.3768 28.0258C36.0498 24.0658 37.0308 19.3048 36.1308 14.6158L36.1128 14.6338Z" fill="#FFFFFF" />
  <path d="M5.76497 30.7168C3.28097 28.2328 1.50797 25.0198 0.814975 21.3748C-1.04803 11.6278 5.36898 2.18677 15.116 0.323775C19.832 -0.576225 24.62 0.413775 28.598 3.12277C32.576 5.82277 35.267 9.90878 36.167 14.6248C37.067 19.3318 36.086 24.1018 33.404 28.0708L33.377 28.1338L33.323 28.1878C32.702 29.1148 31.784 29.6998 30.749 29.8078C29.75 29.9158 28.76 29.5648 28.04 28.8538L24.899 25.6948C23.594 26.9638 21.875 27.6568 20.057 27.6568C18.239 27.6568 16.457 26.9368 15.143 25.6228L10.868 21.3478C9.55397 20.0338 8.83397 18.2878 8.83397 16.4338C8.83397 14.5798 9.55397 12.8338 10.868 11.5198L11.993 10.3858C13.307 9.07177 15.053 8.35177 16.907 8.35177C18.761 8.35177 20.507 9.07177 21.821 10.3858L26.096 14.6608C27.41 15.9748 28.13 17.7208 28.13 19.5748C28.13 21.4288 27.428 23.1118 26.159 24.4168L29.309 27.5848C29.642 27.9178 30.092 28.0708 30.542 28.0258C31.055 27.9718 31.514 27.6568 31.847 27.1528L31.865 27.0988L31.901 27.0718C34.313 23.4898 35.204 19.1968 34.394 14.9578C33.584 10.7188 31.163 7.03778 27.581 4.60777C23.999 2.17777 19.688 1.27777 15.449 2.08777C6.67398 3.76178 0.904975 12.2668 2.57897 21.0328C3.97397 28.3498 10.139 33.7498 17.564 34.1638H17.591L17.609 34.1908C17.726 34.3888 17.843 34.5778 17.942 34.7758L17.987 34.8568H17.897C14.108 34.7218 10.427 33.2908 7.53797 30.8158C4.63997 28.3318 2.64197 24.9118 1.93097 21.1678C0.184974 12.0328 6.19697 3.18577 15.323 1.43977C19.742 0.593775 24.224 1.52978 27.959 4.05877C31.685 6.58778 34.205 10.4218 35.051 14.8408C35.897 19.2508 34.97 23.7238 32.459 27.4498L32.423 27.5128C31.982 28.1968 31.343 28.6108 30.632 28.6918C29.975 28.7638 29.327 28.5388 28.85 28.0618L25.232 24.4258L25.628 24.0298C26.816 22.8418 27.464 21.2668 27.464 19.5928C27.464 17.9188 26.807 16.3348 25.628 15.1558L24.386 13.9138H24.359L24.278 13.8058L21.353 10.8808C20.165 9.69277 18.59 9.04478 16.916 9.04478C15.242 9.04478 13.658 9.70177 12.47 10.8808L11.345 12.0148C10.157 13.2028 9.50898 14.7778 9.49998 16.4608C9.49998 18.1348 10.157 19.7188 11.336 20.8978L15.611 25.1728C16.799 26.3608 18.374 27.0088 20.057 27.0088C21.731 27.0088 23.315 26.3518 24.503 25.1638L24.899 24.7678L28.508 28.4038C29.084 28.9798 29.867 29.2588 30.668 29.1688C31.514 29.0788 32.27 28.5928 32.792 27.7918L32.837 27.7108L32.855 27.6928C35.429 23.8768 36.365 19.2868 35.501 14.7598C34.637 10.2148 32.045 6.28177 28.211 3.68077C25.313 1.71877 21.956 0.674775 18.5 0.674775C17.411 0.674775 16.304 0.782775 15.224 0.989775C5.85498 2.77177 -0.328025 11.8618 1.46297 21.2488C3.00197 29.2858 10.04 35.2078 18.212 35.3248H18.239L18.257 35.3518C18.356 35.5408 18.464 35.7298 18.572 35.9098L18.608 35.9818H18.518C18.518 35.9818 18.491 35.9998 18.482 35.9998C13.577 35.9998 9.04997 34.0018 5.76497 30.7168ZM31.181 5.38177C30.38 4.58077 29.498 3.85177 28.544 3.20377C24.584 0.512775 19.823 -0.468226 15.134 0.422774C5.44098 2.27677 -0.940026 11.6638 0.913974 21.3568C2.52497 29.7718 9.89598 35.8828 18.446 35.9008C18.356 35.7478 18.275 35.5858 18.185 35.4328C14.216 35.3698 10.346 33.9208 7.28597 31.3558C4.22597 28.7818 2.11997 25.1998 1.36397 21.2758C-0.436026 11.8258 5.78298 2.68177 15.215 0.881775C16.304 0.674775 17.411 0.566775 18.509 0.566775C21.983 0.566775 25.367 1.61077 28.274 3.59077C32.126 6.20977 34.736 10.1698 35.609 14.7328C36.482 19.2868 35.528 23.9038 32.936 27.7468L32.918 27.7648L32.882 27.8278C32.342 28.6468 31.559 29.1508 30.686 29.2498C29.858 29.3398 29.039 29.0518 28.445 28.4578L24.899 24.8938L24.575 25.2178C23.369 26.4238 21.767 27.0898 20.066 27.0898C18.365 27.0898 16.763 26.4238 15.557 25.2178L11.282 20.9428C10.076 19.7368 9.40998 18.1348 9.40998 16.4338C9.40998 14.7328 10.076 13.1308 11.282 11.9248L12.407 10.7908C13.613 9.58477 15.215 8.91877 16.925 8.91877C18.635 8.91877 20.228 9.58477 21.434 10.7908L24.368 13.7248L24.422 13.7968H24.44L25.709 15.0658C26.915 16.2718 27.572 17.8738 27.572 19.5748C27.572 21.2758 26.906 22.8778 25.7 24.0838L25.367 24.4168L28.913 27.9808C29.363 28.4308 29.984 28.6468 30.605 28.5838C31.289 28.5118 31.901 28.1068 32.324 27.4498L32.36 27.3868C34.862 23.6878 35.78 19.2418 34.934 14.8588C34.097 10.4668 31.595 6.65977 27.887 4.14877C24.179 1.62877 19.715 0.701775 15.332 1.54777C6.26898 3.27577 0.292975 12.0688 2.02997 21.1498C3.47897 28.7368 10.112 34.4428 17.816 34.7488C17.726 34.5868 17.636 34.4338 17.537 34.2718C10.076 33.8398 3.89297 28.4128 2.48897 21.0598C0.805974 12.2308 6.61098 3.68077 15.44 1.99777C19.706 1.17877 24.044 2.07877 27.653 4.52677C31.253 6.97477 33.692 10.6738 34.511 14.9398C35.321 19.1968 34.43 23.5258 32 27.1348L31.982 27.1618V27.1978C31.613 27.7378 31.127 28.0618 30.587 28.1248C30.101 28.1788 29.624 28.0078 29.273 27.6568L26.06 24.4168L26.096 24.3808C27.365 23.0938 28.067 21.3838 28.067 19.5748C28.067 17.7658 27.356 16.0288 26.06 14.7328L21.785 10.4578C20.489 9.16177 18.77 8.45078 16.943 8.45078C15.116 8.45078 13.397 9.16177 12.101 10.4578L10.976 11.5918C9.67997 12.8878 8.96898 14.6068 8.96898 16.4338C8.96898 18.2608 9.67997 19.9798 10.976 21.2758L15.251 25.5508C16.547 26.8468 18.266 27.5578 20.093 27.5578C21.92 27.5578 23.603 26.8558 24.899 25.5868L24.935 25.5508L28.148 28.7818C28.841 29.4748 29.795 29.8168 30.776 29.7088C31.784 29.6008 32.675 29.0338 33.287 28.1248L33.332 28.0798L33.35 28.0258C36.023 24.0658 36.995 19.3228 36.104 14.6428C35.429 11.0878 33.719 7.89277 31.217 5.38177H31.181Z" fill="#FFFFFF" />
  <path d="M19.121 18.5661L23.729 13.9581L20.993 11.2221C19.904 10.1331 18.455 9.53906 16.916 9.53906C15.377 9.53906 13.928 10.1421 12.839 11.2311L11.714 12.3651C10.625 13.4541 10.022 14.9031 10.022 16.4421C10.022 17.9811 10.625 19.4301 11.714 20.5191L14.45 23.2551L19.004 18.7011H19.067L19.121 18.5841V18.5661ZM14.45 22.4361L12.119 20.1051C11.138 19.1241 10.598 17.8191 10.598 16.4331C10.598 15.0471 11.138 13.7421 12.119 12.7611L13.244 11.6271C14.225 10.6461 15.53 10.1061 16.916 10.1061C18.302 10.1061 19.607 10.6461 20.588 11.6271L22.919 13.9581L14.441 22.4361H14.45Z" fill="#FFFFFF" />
  <path d="M11.6781 20.5376C10.5801 19.4396 9.97705 17.9816 9.97705 16.4246C9.97705 14.8766 10.5801 13.4096 11.6781 12.3116L12.8031 11.1776C13.9011 10.0796 15.3591 9.47656 16.9161 9.47656C18.4641 9.47656 19.9311 10.0796 21.029 11.1776L23.8011 13.9496L19.1661 18.5846L19.1031 18.7196H19.0311L14.4591 23.2916L11.6871 20.5196L11.6781 20.5376ZM20.9571 11.2586C19.8771 10.1786 18.4461 9.58456 16.9161 9.58456C15.3951 9.58456 13.9551 10.1786 12.8751 11.2586L11.7501 12.3926C10.6701 13.4726 10.0761 14.9036 10.0761 16.4336C10.0761 17.9636 10.6701 19.3946 11.7501 20.4746L14.4501 23.1746L18.986 18.6386H19.0401L19.0941 18.5396L23.6661 13.9676L20.9661 11.2676L20.9571 11.2586ZM12.0831 20.1416C11.0931 19.1516 10.5441 17.8286 10.5441 16.4336C10.5441 15.0386 11.0931 13.7156 12.0831 12.7256L13.2081 11.5916C14.1981 10.6016 15.5211 10.0526 16.9161 10.0526C18.3111 10.0526 19.6341 10.6016 20.6241 11.5916L22.9911 13.9586L14.4411 22.5086L12.0741 20.1416H12.0831ZM20.561 11.6636C19.5891 10.6916 18.2931 10.1606 16.9251 10.1606C15.5571 10.1606 14.2611 10.6916 13.2891 11.6636L12.1641 12.7976C11.1921 13.7696 10.6611 15.0656 10.6611 16.4336C10.6611 17.8016 11.1831 19.0796 12.1461 20.0516L14.4681 22.3736L22.8741 13.9676L20.5701 11.6636H20.561Z" fill="#FFFFFF" />
</svg>