<svg width="100" height="100" viewBox="0 0 100 100" fill="none" xmlns="http://www.w3.org/2000/svg">
<path d="M69.2889 68.8359C62.2576 83.2109 49.9451 92.8828 33.6561 96.0625C31.1585 96.6746 28.5946 96.9738 26.0232 96.9531C16.6482 96.9531 8.05449 93.0469 3.88262 86.6484C-1.71894 78.125 -3.62519 60.0547 14.8436 46.6875C15.2186 48.7266 15.9842 51.5234 16.492 53.1797C12.8665 55.8732 9.89884 59.3537 7.81231 63.3594C4.37481 70.1094 4.75762 76.8516 8.82793 83.0859C11.6404 87.2891 16.0936 89.8438 21.8201 90.625C28.9727 91.5303 36.229 90.1638 42.5623 86.7188C52.492 81.5 59.1092 75.2656 63.4373 66.7422C62.2135 65.4775 61.4891 63.8123 61.3982 62.0547C61.3328 60.1686 62.0183 58.3337 63.3043 56.9525C64.5903 55.5713 66.3717 54.7567 68.2576 54.6875H68.5232C70.3576 54.6783 72.1253 55.3746 73.4605 56.6324C74.7958 57.8902 75.5964 59.6131 75.6968 61.4447C75.7972 63.2764 75.1896 65.0765 73.9997 66.4726C72.8099 67.8687 71.1289 68.754 69.3045 68.9453L69.2889 68.8359ZM91.6873 53.0547C101.226 63.8672 101.484 76.5938 97.7967 83.9766C94.3592 90.7188 85.2967 97.4688 73.1092 97.4688C67.4199 97.3522 61.8232 96.0063 56.7029 93.5234C58.492 92.25 61.0311 90.2109 62.4295 88.9375C66.3776 90.6488 70.6268 91.5571 74.9295 91.6094C82.8201 91.6094 88.7967 87.9219 92.3592 81.1797C94.6482 76.7266 94.7811 71.5078 92.617 66.1641C89.962 59.4402 85.2368 53.7354 79.1248 49.875C71.1066 44.4699 61.6541 41.5884 51.9842 41.6016H49.6951C49.1613 42.8346 48.293 43.8935 47.1884 44.6584C46.0838 45.4234 44.7871 45.8637 43.4451 45.9297H43.2029C41.3468 45.9069 39.5727 45.1614 38.2574 43.8515C36.9421 42.5417 36.1893 40.7707 36.1587 38.9146C36.1282 37.0586 36.8225 35.2638 38.094 33.9115C39.3655 32.5591 41.1142 31.7557 42.9686 31.6719H43.2264C44.5186 31.6728 45.7856 32.0299 46.8882 32.7039C47.9907 33.3778 48.8862 34.3426 49.4764 35.4922H51.5154C67.7654 35.4922 82.0311 41.7266 91.6873 53.0547ZM27.0389 71.0234C26.9044 69.7261 27.2188 68.4218 27.9295 67.3281C20.8045 54.9844 16.992 39.3359 22.8436 23.0469C27.0389 10.8047 37.6014 2.53125 49.0545 2.53125C61.2732 2.53125 73.9998 13.2266 75.5232 33.8359C73.617 33.2031 70.8357 32.2734 69.1639 31.9297C68.7498 25.1875 63.0545 8.39063 49.5623 8.64063C44.7264 8.77344 37.6014 11.0625 33.9373 15.7656C29.4055 21.3801 26.7689 28.286 26.4061 35.4922C25.5467 45.3733 27.865 55.2706 33.0232 63.7422C33.308 63.6382 33.6115 63.5956 33.9139 63.6172H34.1639C36.0535 63.583 37.8794 64.3009 39.2398 65.6129C40.6001 66.9249 41.3836 68.7236 41.4178 70.6133C41.452 72.503 40.7341 74.3288 39.4221 75.6892C38.11 77.0495 36.3113 77.833 34.4217 77.8672H34.1639C32.3204 77.8606 30.5505 77.1429 29.2231 75.8636C27.8958 74.5842 27.1133 72.842 27.0389 71V71.0234Z" fill="#225E84"/>
</svg>
