<svg width="100" height="100" viewBox="0 0 100 100" fill="none" xmlns="http://www.w3.org/2000/svg">
<path d="M83.8642 1.5721L78.4627 1.90882L78.8838 13.1408C78.9056 13.7619 78.1892 14.1244 77.7009 13.7393L74.0838 10.8877L69.7986 14.1393C69.6883 14.2231 69.5563 14.2737 69.4183 14.2853C69.2802 14.2969 69.1417 14.2689 69.0189 14.2047C68.8962 14.1404 68.7943 14.0426 68.7251 13.9225C68.6559 13.8025 68.6223 13.6652 68.6283 13.5268L69.1103 2.49319L15.5259 5.84397C14.2513 5.9234 13.0582 6.49796 12.2014 7.445C11.3445 8.39204 10.8919 9.63651 10.94 10.9127L13.9556 91.2549C14.0017 92.4824 14.5077 93.6478 15.3732 94.5195C16.2387 95.3912 17.4003 95.9055 18.6275 95.9604L83.9494 98.8932C84.6097 98.9225 85.2691 98.8179 85.888 98.5856C86.5068 98.3533 87.0722 97.9982 87.5502 97.5416C88.0281 97.085 88.4086 96.5363 88.6686 95.9286C88.9285 95.3208 89.0626 94.6667 89.0627 94.0057V6.45647C89.0629 5.788 88.9261 5.12656 88.6607 4.51302C88.3954 3.89948 88.007 3.34686 87.5197 2.88929C87.0327 2.43163 86.4571 2.07863 85.8284 1.85209C85.1997 1.62554 84.5312 1.53025 83.8642 1.5721ZM51.4736 18.1244C64.2142 18.1244 71.172 24.9393 71.172 37.9049C69.4502 39.2432 56.6252 40.1549 56.6252 38.251C56.8955 30.9854 53.6431 30.6674 51.8361 30.6674C50.1189 30.6674 47.2275 31.1846 47.2275 35.0768C47.2275 44.6768 71.9853 44.1588 71.9853 63.533C71.9853 74.4315 63.1298 80.451 51.8361 80.451C40.1798 80.451 29.9947 75.7354 31.1447 59.3862C31.5963 57.4666 46.4142 57.9229 46.4142 59.3862C46.2345 66.1323 47.7697 68.1166 51.6541 68.1166C54.6361 68.1166 55.9923 66.4737 55.9923 63.7057C55.9923 53.8455 31.5963 53.5002 31.5963 35.4237C31.5963 25.0448 38.7345 18.1244 51.4736 18.1244Z" fill="#225E84"/>
</svg>
