<svg width="100" height="100" viewBox="0 0 100 100" fill="none" xmlns="http://www.w3.org/2000/svg">
<g clip-path="url(#clip0_1252_977)">
<path d="M25.0766 48.0164C24.6859 52.9348 29.0068 56.5574 31.9557 56.5574C34.9086 56.4197 46.4092 46.7281 46.4092 46.7281C51.8182 39.8873 51.8416 36.8455 51.8416 34.4547C51.3904 23.8994 32.16 39.9762 25.0766 48.0164ZM72.6479 43.9309C75.2582 38.4062 71.7463 32.2701 64.1072 37.6598C58.0369 41.518 50.1781 49.4551 46.417 52.5621C44.6725 56.0857 49.0947 65.7557 56.1025 60.65C64.3857 54.632 70.4346 48.9732 72.6479 43.9309ZM79.7572 10.5105L81.4395 0H100V19.1863L93.1979 19.2676L85.0074 47.0086C85.5172 56.7992 80.5523 56.9586 79.9182 61.451C78.3242 72.742 65.6975 81.9807 60.8699 81.9807C57.6502 81.8873 55.2965 78.1971 54.5059 74.9814C63.584 64.9404 75.7918 57.0496 75.7918 57.0496C76.5541 51.7689 74.8787 50.0877 80.5131 45.5879L85.8896 17.3187C81.2979 14.2865 79.1553 14.3336 79.7572 10.5105ZM43.5293 57.327C48.2367 66.8121 55.0385 67.0594 65.584 54.9834C65.8346 56.0998 66.109 57.2695 65.6055 60.0781C44.1531 79.2654 23.948 97.9395 17.7979 100H0V95.2266C2.89453 91.2125 26.65 71.6189 43.5293 57.327ZM75.234 75.6922C74.2682 83.9023 66.7828 91.0867 56.7805 100H25.0805L51.8047 77.4893C56.418 87.9883 64.6121 86.4674 75.2342 75.6922M37.7461 57.0566L0 89.2293V68.3563L22.2129 50.2734C23.4012 57.0041 30.6807 62.9309 37.7461 57.057" fill="#225E84"/>
</g>
<defs>
<clipPath id="clip0_1252_977">
<rect width="100" height="100" fill="white"/>
</clipPath>
</defs>
</svg>
