<svg width="100" height="100" viewBox="0 0 100 100" fill="none" xmlns="http://www.w3.org/2000/svg">
<path d="M50.0002 25C38.8752 25 31.9585 30.5417 29.1668 41.6667C33.3335 36.125 38.2085 34.0417 43.7502 35.4167C46.9168 36.2083 49.2085 38.5 51.7085 41.0417C55.7918 45.2083 60.4168 50 70.8335 50C81.9585 50 88.8752 44.4583 91.6668 33.3333C87.5002 38.875 82.6252 40.9583 77.0835 39.5833C73.9168 38.7917 71.6668 36.5 69.1252 33.9583C65.0418 29.7917 60.4168 25 50.0002 25ZM29.1668 50C18.0418 50 11.1252 55.5417 8.3335 66.6667C12.5002 61.125 17.3752 59.0417 22.9168 60.4167C26.0835 61.2083 28.3335 63.5 30.8752 66.0417C34.9585 70.2083 39.5835 75 50.0002 75C61.1252 75 68.0418 69.4583 70.8335 58.3333C66.6668 63.875 61.7918 65.9583 56.2502 64.5833C53.0835 63.7917 50.8335 61.5 48.2918 58.9583C44.2085 54.7917 39.5835 50 29.1668 50Z" fill="#225E84"/>
</svg>
