<svg width="100" height="100" viewBox="0 0 100 100" fill="none" xmlns="http://www.w3.org/2000/svg">
<g clip-path="url(#clip0_1255_966)">
<path d="M34.5249 44.0749L36.6583 8.00404C36.6752 7.72179 36.7856 7.45319 36.9719 7.24049C37.1582 7.02779 37.4099 6.88305 37.6874 6.82904L72.4041 0.024873C72.6185 -0.0172325 72.8401 -0.00352967 73.0477 0.0646666C73.2553 0.132863 73.4419 0.253264 73.5896 0.414317C73.7372 0.575371 73.841 0.771671 73.891 0.984383C73.941 1.1971 73.9354 1.41908 73.8749 1.62904L67.3833 24.1415C67.323 24.3511 67.3176 24.5726 67.3673 24.7849C67.4171 24.9972 67.5205 25.1932 67.6677 25.3541C67.8148 25.515 68.0007 25.6355 68.2077 25.7041C68.4147 25.7726 68.6358 25.787 68.8499 25.7457L78.7999 23.829C79.0341 23.7833 79.2763 23.8041 79.4992 23.8891C79.7221 23.9742 79.9166 24.12 80.0607 24.3102C80.2048 24.5003 80.2927 24.727 80.3144 24.9646C80.336 25.2021 80.2906 25.441 80.1833 25.654L51.8916 82.1124L51.3791 82.904C51.2671 83.0816 51.1123 83.2281 50.9288 83.3301C50.7452 83.432 50.539 83.4861 50.3291 83.4874C49.5916 83.4874 48.8708 82.854 49.0583 81.9499L53.6208 59.8624C53.6656 59.646 53.6534 59.4217 53.5854 59.2115C53.5174 59.0013 53.3959 58.8124 53.2329 58.6632C53.0699 58.5141 52.8709 58.4099 52.6555 58.3608C52.4401 58.3117 52.2156 58.3194 52.0041 58.3832L46.0333 60.1957C45.8219 60.2601 45.5974 60.2685 45.3818 60.22C45.1662 60.1715 44.9669 60.0678 44.8035 59.9191C44.64 59.7703 44.518 59.5817 44.4495 59.3716C44.3809 59.1615 44.3682 58.9372 44.4124 58.7207L47.2874 44.6582C47.331 44.4483 47.321 44.2307 47.2582 44.0257C47.1954 43.8206 47.0819 43.6347 46.9282 43.4852C46.7745 43.3357 46.5856 43.2273 46.3789 43.1701C46.1722 43.113 45.9545 43.1089 45.7458 43.1582L36.0791 45.3915C35.8862 45.4359 35.6856 45.4347 35.4932 45.388C35.3008 45.3414 35.1219 45.2506 34.9707 45.1228C34.8195 44.9951 34.7002 44.8339 34.622 44.652C34.5439 44.4701 34.5093 44.2725 34.5208 44.0749H34.5249ZM96.9249 11.0499L72.0166 15.5832L69.7499 23.4457L78.4041 21.779C79.0748 21.6453 79.7703 21.7212 80.3964 21.9962C81.0225 22.2712 81.5489 22.7322 81.9041 23.3165C82.2056 23.8025 82.377 24.3579 82.4018 24.9293C82.4266 25.5006 82.304 26.0688 82.0458 26.579L53.7499 83.0415L53.6958 83.1457L53.6333 83.2415L53.1249 84.0332C52.8247 84.5042 52.411 84.8922 51.9218 85.1615C51.4325 85.4309 50.8834 85.5731 50.3249 85.5749C49.8194 85.571 49.3209 85.4563 48.8645 85.2389C48.408 85.0215 48.0049 84.7066 47.6833 84.3165C47.3712 83.9303 47.1494 83.4791 47.0341 82.9961C46.9187 82.5131 46.9128 82.0105 47.0166 81.5249L51.3041 60.7707L46.6374 62.1874C45.9991 62.3797 45.3181 62.3786 44.6804 62.1843C44.0427 61.99 43.4768 61.6112 43.0541 61.0957C42.7384 60.7112 42.5129 60.2609 42.3939 59.7778C42.2749 59.2947 42.2656 58.7912 42.3666 58.304L44.9916 45.4707L36.5458 47.4207C35.974 47.5508 35.3782 47.5297 34.8171 47.3595C34.2559 47.1892 33.7489 46.8757 33.3458 46.4499C33.0316 46.1175 32.7892 45.724 32.6337 45.2939C32.4781 44.8638 32.4127 44.4063 32.4416 43.9499L34.0624 16.5749L3.06244 11.0332C2.5848 10.947 2.09249 10.9989 1.64334 11.1828C1.19418 11.3667 0.806841 11.675 0.526813 12.0714C0.246784 12.4678 0.085702 12.9359 0.0624892 13.4207C0.0392763 13.9055 0.154897 14.3868 0.395769 14.8082L48.2499 98.7124C48.4735 99.1051 48.7974 99.4314 49.1884 99.6578C49.5795 99.8842 50.0237 100.003 50.4756 100.001C50.9275 99.9992 51.3708 99.8775 51.7602 99.6481C52.1496 99.4188 52.471 99.0901 52.6916 98.6957L99.6083 14.7999C99.8434 14.3778 99.9538 13.8975 99.9266 13.4151C99.8994 12.9326 99.7356 12.4679 99.4544 12.0749C99.1732 11.682 98.7862 11.377 98.3384 11.1955C97.8905 11.014 97.4003 10.9635 96.9249 11.0499Z" fill="#225E84"/>
</g>
<defs>
<clipPath id="clip0_1255_966">
<rect width="100" height="100" fill="white"/>
</clipPath>
</defs>
</svg>
