<svg width="30" height="29" viewBox="0 0 30 29" fill="none" xmlns="http://www.w3.org/2000/svg">
<path d="M15.2913 0.802734C7.28664 0.802734 0.803223 7.14097 0.803223 14.9664C0.803223 21.2338 4.95044 26.5275 10.7095 28.4041C11.4339 28.5281 11.7055 28.1032 11.7055 27.7314C11.7055 27.395 11.6874 26.2796 11.6874 25.0934C8.04727 25.7485 7.10554 24.2259 6.81578 23.4292C6.65279 23.022 5.9465 21.7649 5.33075 21.4285C4.82367 21.163 4.09926 20.5079 5.31264 20.4902C6.45358 20.4725 7.26853 21.5171 7.54019 21.942C8.84412 24.0842 10.9268 23.4823 11.7598 23.1105C11.8866 22.1898 12.2669 21.5702 12.6835 21.2161C9.45986 20.862 6.09138 19.6404 6.09138 14.2228C6.09138 12.6825 6.65279 11.4078 7.57641 10.4163C7.43153 10.0622 6.92444 8.61044 7.72129 6.66294C7.72129 6.66294 8.93467 6.29115 11.7055 8.11472C12.8646 7.79603 14.0961 7.63669 15.3275 7.63669C16.559 7.63669 17.7905 7.79603 18.9496 8.11472C21.7204 6.27344 22.9338 6.66294 22.9338 6.66294C23.7306 8.61044 23.2235 10.0622 23.0787 10.4163C24.0023 11.4078 24.5637 12.6648 24.5637 14.2228C24.5637 19.6581 21.1771 20.862 17.9535 21.2161C18.4787 21.6587 18.9315 22.5085 18.9315 23.8364C18.9315 25.7307 18.9133 27.2533 18.9133 27.7314C18.9133 28.1032 19.185 28.5458 19.9094 28.4041C22.786 27.4556 25.2857 25.6487 27.0564 23.238C28.827 20.8273 29.7795 17.9342 29.7794 14.9664C29.7794 7.14097 23.296 0.802734 15.2913 0.802734Z" fill="#DEE0E2"/>
</svg>
